name H:\OpenSim\Running\SimulationDataAndSetupFiles\ExpData\grf_run.mot
datacolumns 19
datarows 17
range 0.61333333 0.66666667
endheader

                time	   R_ground_force_vx	   R_ground_force_vy	   R_ground_force_vz	   R_ground_force_px	   R_ground_force_py	   R_ground_force_pz	   L_ground_force_vx	   L_ground_force_vy	   L_ground_force_vz	   L_ground_force_px	   L_ground_force_py	   L_ground_force_pz	   R_ground_torque_x	   R_ground_torque_y	   R_ground_torque_z	   L_ground_torque_x	   L_ground_torque_y	   L_ground_torque_z	
          0.61333333	          0.00000000	          0.00000000	          0.00000000	          0.00000000	          0.00000000	          0.00000000	        112.93347902	        470.76201453	          3.64130472	          1.46714459	          0.00000000	         -0.23264312	          0.00000000	          0.00000000	          0.00000000	          0.00000000	          0.97043280	          0.00000000	
          0.61666667	          0.00000000	          0.00000000	          0.00000000	          0.00000000	          0.00000000	          0.00000000	        107.75383503	        423.84589202	          2.82918306	          1.46791525	          0.00000000	         -0.23249765	          0.00000000	          0.00000000	          0.00000000	          0.00000000	          0.91251896	          0.00000000	
          0.62000000	          0.00000000	          0.00000000	          0.00000000	          0.00000000	          0.00000000	          0.00000000	        101.86243808	        378.81174796	          2.14752951	          1.46872873	          0.00000000	         -0.23242188	          0.00000000	          0.00000000	          0.00000000	          0.00000000	          0.83194723	          0.00000000	
          0.62333333	          0.00000000	          0.00000000	          0.00000000	          0.00000000	          0.00000000	          0.00000000	         95.40542135	        335.69936233	          1.55517666	          1.46964489	          0.00000000	         -0.23239934	          0.00000000	          0.00000000	          0.00000000	          0.00000000	          0.73036648	          0.00000000	
          0.62666667	          0.00000000	          0.00000000	          0.00000000	          0.00000000	          0.00000000	          0.00000000	         88.46999604	        294.54551558	          1.01228209	          1.47075559	          0.00000000	         -0.23239951	          0.00000000	          0.00000000	          0.00000000	          0.00000000	          0.60921804	          0.00000000	
          0.63000000	          0.00000000	          0.00000000	          0.00000000	          0.00000000	          0.00000000	          0.00000000	         81.06494134	        255.44143753	          0.50753734	          1.47218271	          0.00000000	         -0.23238014	          0.00000000	          0.00000000	          0.00000000	          0.00000000	          0.47210795	          0.00000000	
          0.63333333	          0.00000000	          0.00000000	          0.00000000	          0.00000000	          0.00000000	          0.00000000	         73.15365939	        218.59774422	          0.07485373	          1.47407021	          0.00000000	         -0.23229692	          0.00000000	          0.00000000	          0.00000000	          0.00000000	          0.32573261	          0.00000000	
          0.63666667	          0.00000000	          0.00000000	          0.00000000	          0.00000000	          0.00000000	          0.00000000	         64.72251874	        184.37337136	         -0.21400236	          1.47655344	          0.00000000	         -0.23210817	          0.00000000	          0.00000000	          0.00000000	          0.00000000	          0.18010061	          0.00000000	
          0.64000000	          0.00000000	          0.00000000	          0.00000000	          0.00000000	          0.00000000	          0.00000000	         55.87021397	        153.21927950	         -0.28652244	          1.47970260	          0.00000000	         -0.23177587	          0.00000000	          0.00000000	          0.00000000	          0.00000000	          0.04819739	          0.00000000	
          0.64333333	          0.00000000	          0.00000000	          0.00000000	          0.00000000	          0.00000000	          0.00000000	         46.85821381	        125.51148611	         -0.11882639	          1.48345745	          0.00000000	         -0.23121929	          0.00000000	          0.00000000	          0.00000000	          0.00000000	         -0.05704329	          0.00000000	
          0.64666667	          0.00000000	          0.00000000	          0.00000000	          0.00000000	          0.00000000	          0.00000000	         38.08083319	        101.36390710	          0.22932379	          1.48758542	          0.00000000	         -0.23026621	          0.00000000	          0.00000000	          0.00000000	          0.00000000	         -0.12724271	          0.00000000	
          0.65000000	          0.00000000	          0.00000000	          0.00000000	          0.00000000	          0.00000000	          0.00000000	         29.94451749	         80.51937569	          0.62837117	          1.49173228	          0.00000000	         -0.22864006	          0.00000000	          0.00000000	          0.00000000	          0.00000000	         -0.16033467	          0.00000000	
          0.65333333	          0.00000000	          0.00000000	          0.00000000	          0.00000000	          0.00000000	          0.00000000	         22.73775902	         62.44796478	          0.93269783	          1.49553314	          0.00000000	         -0.22606219	          0.00000000	          0.00000000	          0.00000000	          0.00000000	         -0.16218162	          0.00000000	
          0.65666667	          0.00000000	          0.00000000	          0.00000000	          0.00000000	          0.00000000	          0.00000000	         16.57692793	         46.65011619	          1.04794275	          1.49873505	          0.00000000	         -0.22244792	          0.00000000	          0.00000000	          0.00000000	          0.00000000	         -0.14215099	          0.00000000	
          0.66000000	          0.00000000	          0.00000000	          0.00000000	          0.00000000	          0.00000000	          0.00000000	         11.46880410	         32.94486261	          0.96686828	          1.50124462	          0.00000000	         -0.21807423	          0.00000000	          0.00000000	          0.00000000	          0.00000000	         -0.11066099	          0.00000000	
          0.66333333	          0.00000000	          0.00000000	          0.00000000	          0.00000000	          0.00000000	          0.00000000	          7.39544172	         21.52449156	          0.75400799	          1.50309086	          0.00000000	         -0.21353940	          0.00000000	          0.00000000	          0.00000000	          0.00000000	         -0.07687666	          0.00000000	
          0.66666667	          0.00000000	          0.00000000	          0.00000000	          0.00000000	          0.00000000	          0.00000000	          4.34979467	         12.73028648	          0.50238364	          0.00000000	          0.00000000	          0.00000000	          0.00000000	          0.00000000	          0.00000000	          0.00000000	         -0.04728126	          0.00000000	
